<?xml version="1.0" encoding="utf-8"?>
<!-- Generator: Adobe Illustrator 23.0.1, SVG Export Plug-In . SVG Version: 6.00 Build 0)  -->
<svg version="1.1" id="Layer_1" xmlns="http://www.w3.org/2000/svg" xmlns:xlink="http://www.w3.org/1999/xlink" x="0px" y="0px"
	 viewBox="0 0 32 32" style="enable-background:new 0 0 32 32;" xml:space="preserve">
<style type="text/css">
	.st0{fill:#6633CC;}
	.st1{fill:#FFFFFF;}
</style>
<circle class="st0" cx="16" cy="16" r="16"/>
<title>3keyslogowhite50px</title>
<g>
	<g id="number3">
		<path class="st1" d="M-61.8,0.4l6.4,6.4l0.7,0.7c0.1,0.1,0.3,0.2,0.5,0.2h14.7c0.2,0,0.4-0.1,0.6-0.2l0,0l7.1-7.1
			c0.1-0.1,0.1-0.2,0-0.3c0,0-0.1-0.1-0.2-0.1h-29.7c-0.1,0-0.2,0.1-0.2,0.2C-61.9,0.3-61.9,0.3-61.8,0.4z"/>
		<path class="st1" d="M-29.7,0.1l-13.3,13.1c-0.1,0.1-0.1,0.1-0.1,0.2v1.3c0,0.1,0.1,0.2,0.2,0.2c0.1,0,0.1,0,0.2-0.1l14.5-14.5
			c0.1-0.1,0.1-0.2,0-0.3c0,0-0.1-0.1-0.1-0.1h-1.2C-29.5,0-29.6,0-29.7,0.1z"/>
		<path class="st1" d="M-25.8,0.1l-17.1,17c-0.1,0.1-0.1,0.1-0.1,0.2v1.3c0,0.1,0.1,0.2,0.2,0.2c0.1,0,0.1,0,0.2-0.1l18.5-18.4
			c0.1-0.1,0.1-0.2,0-0.3c0,0-0.1-0.1-0.2-0.1h-1.3C-25.7,0-25.8,0-25.8,0.1z"/>
		<path class="st1" d="M-22,0.1l-20.9,20.8C-43,21-43,21-43,21.1v1.3c0,0.1,0.1,0.2,0.2,0.2c0.1,0,0.1,0,0.2-0.1l22.3-22.2
			c0.1-0.1,0.1-0.2,0-0.3c0,0-0.1-0.1-0.2-0.1h-1.3C-21.9,0-21.9,0-22,0.1z"/>
		<path class="st1" d="M-61.9,28.6c-0.2,0-0.4,0.2-0.4,0.4c0.5,9,6.3,16.8,14.8,19.8c6.9,2.4,15.7,1.4,21.7-4.7
			c8.7-8.7,4.9-21,4.7-21.7c-1.4-4.3-4.1-8.1-7.8-10.8l-0.3-0.3c-0.2-0.1-0.4-0.1-0.6,0l-0.2,0.2l-3.9,3.9l-0.8,0.9
			c-0.2,0.2-0.2,0.4,0,0.6c0,0,0,0,0.1,0.1l1,0.6c2.5,1.7,4.4,4.2,5.2,7.1c1.7,4.8,0.5,10.1-3,13.8c-3.7,3.5-9,4.7-13.8,3
			c-5.3-1.9-9-6.8-9.4-12.4c0-0.3-0.1-0.5-0.4-0.5"/>
	</g>
</g>
<g>
	<g id="number3_1_">
		<path class="st1" d="M7.7,6.9l2.6,2.6l0.3,0.3c0.1,0.1,0.1,0.1,0.2,0.1h5.9c0.1,0,0.2,0,0.2-0.1l0,0l2.9-2.8c0,0,0-0.1,0-0.1
			c0,0,0,0-0.1,0H7.8C7.7,6.8,7.7,6.8,7.7,6.9C7.7,6.9,7.7,6.9,7.7,6.9z"/>
		<path class="st1" d="M20.6,6.8l-5.3,5.3c0,0,0,0.1,0,0.1v0.5c0,0,0,0.1,0.1,0.1c0,0,0,0,0.1,0l5.8-5.8c0,0,0-0.1,0-0.1
			c0,0,0,0-0.1,0L20.6,6.8C20.6,6.8,20.6,6.8,20.6,6.8z"/>
		<path class="st1" d="M22.1,6.8l-6.8,6.8c0,0,0,0.1,0,0.1v0.5c0,0,0,0.1,0.1,0.1c0,0,0,0,0.1,0l7.4-7.4c0,0,0-0.1,0-0.1
			c0,0,0,0-0.1,0L22.1,6.8C22.2,6.8,22.1,6.8,22.1,6.8z"/>
		<path class="st1" d="M23.6,6.8l-8.4,8.3c0,0,0,0.1,0,0.1v0.5c0,0,0,0.1,0.1,0.1c0,0,0,0,0.1,0l8.9-8.9c0,0,0-0.1,0-0.1
			c0,0,0,0-0.1,0L23.6,6.8C23.7,6.8,23.7,6.8,23.6,6.8z"/>
		<path class="st1" d="M7.7,18.2c-0.1,0-0.1,0.1-0.1,0.2c0.2,3.6,2.5,6.7,5.9,7.9c2.8,0.9,6.3,0.5,8.7-1.9c3.5-3.5,2-8.4,1.9-8.7
			c-0.6-1.7-1.7-3.2-3.1-4.3l-0.1-0.1c-0.1-0.1-0.2-0.1-0.2,0l-0.1,0.1L18.9,13l-0.3,0.3c-0.1,0.1-0.1,0.2,0,0.2c0,0,0,0,0,0
			l0.4,0.2c1,0.7,1.7,1.7,2.1,2.8c0.7,1.9,0.2,4-1.2,5.5c-1.5,1.4-3.6,1.9-5.5,1.2c-2.1-0.8-3.6-2.7-3.8-4.9c0-0.1-0.1-0.2-0.2-0.2"
			/>
	</g>
</g>
</svg>
