<svg id="number3" xmlns="http://www.w3.org/2000/svg" viewBox="0 0 240 80"><defs><style>.cls-1{fill:#63c;}.cls-2{fill:#00a9ff;}.cls-3{fill:#ff8b2a;}.cls-4{fill:#ffea6a;}.cls-5{fill:none;stroke:#63c;stroke-miterlimit:10;stroke-width:0.5px;}</style></defs><title>3keyslogo</title><path class="cls-1" d="M38.59,4.52,47.8,13.7l1,1a1,1,0,0,0,.75.32h21.1a1.17,1.17,0,0,0,.83-.34h0L81.77,4.52A.3.3,0,0,0,81.55,4H38.81A.31.31,0,0,0,38.59,4.52Z"/><path class="cls-2" d="M84.92,4.13,65.83,23.07a.45.45,0,0,0-.14.33v1.82a.31.31,0,0,0,.53.22L87.13,4.52A.3.3,0,0,0,86.92,4H85.24A.48.48,0,0,0,84.92,4.13Z"/><path class="cls-3" d="M90.43,4.13,65.83,28.58a.45.45,0,0,0-.14.33v1.82a.31.31,0,0,0,.53.22L92.79,4.52A.3.3,0,0,0,92.58,4H90.75A.46.46,0,0,0,90.43,4.13Z"/><path class="cls-4" d="M95.94,4.13l-30.11,30a.45.45,0,0,0-.14.32v1.83a.31.31,0,0,0,.53.22L98.3,4.52A.3.3,0,0,0,98.09,4H96.26A.46.46,0,0,0,95.94,4.13Z"/><path class="cls-1" d="M38.5,45.17a.55.55,0,0,0-.51.57A32.08,32.08,0,0,0,59.31,74.31c9.91,3.39,22.58,2,31.29-6.76C103.13,55,97.68,37.24,97.36,36.28A31.79,31.79,0,0,0,86.12,20.71l-.51-.4a.6.6,0,0,0-.81.06l-.31.32-5.57,5.58-1.19,1.24a.61.61,0,0,0,.12.94l1.4.86a18.39,18.39,0,0,1,7.51,10.14c1.89,5.65,1.58,14-4.29,19.85-5.61,5.62-13.72,6.38-19.86,4.3C54,60.68,49.46,52.39,49.06,45.82c0-.39-.21-.65-.61-.66"/><path class="cls-5" d="M107.23,20.33l3.68,0a.3.3,0,0,1,.3.3l.14,18.93a.3.3,0,0,0,.56.15l11.4-19.24a.29.29,0,0,1,.26-.14l3.83,0a.29.29,0,0,1,.26.45l-9.45,15.69a.28.28,0,0,0,0,.28l11.93,26.37a.3.3,0,0,1-.28.42h-3.4a.32.32,0,0,1-.28-.17l-10.66-22.2a.3.3,0,0,0-.53,0l-3.58,6.07a.26.26,0,0,0,0,.15l-.08,15.95a.3.3,0,0,1-.3.3h-3.46a.3.3,0,0,1-.3-.3l-.15-36a.31.31,0,0,0-.3-.3h-3.46a.3.3,0,0,1-.31-.3v-2.1a.3.3,0,0,1,.31-.3h3.46a.31.31,0,0,0,.3-.31v-.75a.31.31,0,0,0-.3-.3h-3.46a.3.3,0,0,1-.31-.3v-2.1a.3.3,0,0,1,.31-.3Zm26.44,42.92.08-42.67a.3.3,0,0,1,.3-.3h19.71a.3.3,0,0,1,.3.3v3.47a.3.3,0,0,1-.3.3H138.11a.3.3,0,0,0-.3.3v17a.3.3,0,0,0,.3.3h11.41c.17,0,.48.14.48.31v3.46a.3.3,0,0,1-.3.3H138.11a.3.3,0,0,0-.3.3V59.26a.3.3,0,0,0,.3.3h15.65a.3.3,0,0,1,.3.3v3.46a.3.3,0,0,1-.3.31L134,63.55A.3.3,0,0,1,133.67,63.25Zm46.54-42.56L171,46a.43.43,0,0,0,0,.11l-.07,10.4a.3.3,0,0,0,.3.3h3.46a.3.3,0,0,1,.3.3v2.11a.29.29,0,0,1-.3.3h-3.46a.3.3,0,0,0-.3.3v.76a.3.3,0,0,0,.3.3h3.46a.29.29,0,0,1,.3.3v2.1a.29.29,0,0,1-.3.3l-7.6-.07a.3.3,0,0,1-.3-.3l.15-17.1a.43.43,0,0,0,0-.11l-9.46-25.43a.3.3,0,0,1,.28-.4h3.57a.29.29,0,0,1,.28.2l7,19.27a.31.31,0,0,0,.57,0l7.12-19.2a.31.31,0,0,1,.29-.2h3.42A.3.3,0,0,1,180.21,20.69Zm5.55,30.75c.05,6.82,1.5,8.07,6.32,8.1,6.77,0,5.89-6.68,5.87-8.1,0-4.37-2.08-5.63-6.29-7.6-6.68-3.28-10.35-4.56-10.35-12.4,0-8.3,3.25-11.15,10.77-11.15,7.22,0,9.93,2.78,9.93,10.83v1a.3.3,0,0,1-.3.3h-3.46a.3.3,0,0,1-.3-.3v-1c0-4.06-.45-6.75-5.87-6.76-6.47,0-6.49,2.7-6.32,8.11.11,3.54,2.56,5,6.77,6.78,4.94,2.16,9.48,3.55,9.48,12.19,0,9.48-2.82,12.18-9.78,12.18-7.57,0-10.48-2.7-10.53-12.18V50.31a.29.29,0,0,1,.3-.3l3.46.07a.29.29,0,0,1,.3.3Z"/><path class="cls-1" d="M107.06,69.46h2.53a.16.16,0,0,1,.16.16V75a.16.16,0,0,0,.15.16h2a.15.15,0,0,1,.15.15v.14a.15.15,0,0,1-.15.15h-4.83a.15.15,0,0,1-.15-.15V75.3a.14.14,0,0,1,.15-.15h2.1a.16.16,0,0,0,.16-.16V70.06a.16.16,0,0,0-.16-.15h-2.1a.15.15,0,0,1-.15-.15v-.14A.15.15,0,0,1,107.06,69.46Zm2.74-2.73v.54a.16.16,0,0,1-.16.15h-.41a.16.16,0,0,1-.16-.15v-.54a.16.16,0,0,1,.16-.16h.41A.16.16,0,0,1,109.8,66.73Z"/><path class="cls-1" d="M115.36,70.8v4.64a.15.15,0,0,1-.15.15h-.12a.16.16,0,0,1-.16-.15V69.65a.19.19,0,0,1,.19-.19h0a.18.18,0,0,1,.18.17l0,.25a.15.15,0,0,0,.25.1,2.23,2.23,0,0,1,1.53-.58c1.15,0,1.82.73,1.82,2.29v3.75a.15.15,0,0,1-.15.15h-.12a.16.16,0,0,1-.16-.15V71.83c0-1.45-.52-2-1.47-2a2.17,2.17,0,0,0-1.63.82A.16.16,0,0,0,115.36,70.8Z"/><path class="cls-1" d="M125.74,75.68c-1.39,0-2.25-.53-2.25-3V70.06a.16.16,0,0,0-.16-.15h-1.17a.15.15,0,0,1-.15-.15v-.14a.16.16,0,0,1,.15-.16h1.17a.16.16,0,0,0,.16-.15V66.9a.15.15,0,0,1,.15-.15h.12a.16.16,0,0,1,.16.15v2.41a.15.15,0,0,0,.15.15h2.48a.15.15,0,0,1,.15.16v.14a.15.15,0,0,1-.15.15h-2.48a.15.15,0,0,0-.15.15v2.55c0,2,.51,2.59,1.85,2.59a3.13,3.13,0,0,0,1-.13.16.16,0,0,1,.2.18l0,.16a.22.22,0,0,1-.11.12A4.09,4.09,0,0,1,125.74,75.68Z"/><path class="cls-1" d="M132.22,75.68c-1.36,0-2.64-.78-2.64-3.09,0-2.14,1.15-3.19,2.47-3.19s2.18,1.14,2.22,2.93a.16.16,0,0,1-.15.16H130v.08c0,2.06,1.11,2.63,2.23,2.63a3.43,3.43,0,0,0,1.46-.3.16.16,0,0,1,.22.16v.15a.2.2,0,0,1-.08.12A3.23,3.23,0,0,1,132.22,75.68Zm-2-3.64h3.45a.15.15,0,0,0,.15-.17c-.18-1.35-.76-2-1.78-2a2,2,0,0,0-2,2A.16.16,0,0,0,130.21,72Z"/><path class="cls-1" d="M137.15,69.46h1.92a.16.16,0,0,1,.16.16V71.1a.15.15,0,0,0,.28.08,3.78,3.78,0,0,1,2.62-1.81.16.16,0,0,1,.16.13l0,.17a.16.16,0,0,1-.14.18,4.14,4.14,0,0,0-2.93,2.24.11.11,0,0,0,0,.08V75a.16.16,0,0,0,.15.16h2.31a.15.15,0,0,1,.15.15v.14a.15.15,0,0,1-.15.15h-4.54a.15.15,0,0,1-.15-.15V75.3a.15.15,0,0,1,.15-.15h1.49a.16.16,0,0,0,.16-.16V70.06a.16.16,0,0,0-.16-.15h-1.49a.15.15,0,0,1-.15-.15v-.14A.16.16,0,0,1,137.15,69.46Z"/><path class="cls-1" d="M145.38,70.8v4.64a.16.16,0,0,1-.16.15h-.11a.16.16,0,0,1-.16-.15V69.65a.18.18,0,0,1,.18-.19h0a.19.19,0,0,1,.19.17l0,.25a.15.15,0,0,0,.25.1,2.23,2.23,0,0,1,1.53-.58c1.14,0,1.82.73,1.82,2.29v3.75a.15.15,0,0,1-.15.15h-.12a.16.16,0,0,1-.16-.15V71.83c0-1.45-.52-2-1.48-2a2.19,2.19,0,0,0-1.63.82A.21.21,0,0,0,145.38,70.8Z"/><path class="cls-1" d="M155.74,75.19a.15.15,0,0,0-.25-.1,2.34,2.34,0,0,1-1.57.61A1.64,1.64,0,0,1,152,73.93c0-1.25,1-2,3.52-2.16a.15.15,0,0,0,.14-.15v-.08a1.47,1.47,0,0,0-1.62-1.67,2.17,2.17,0,0,0-1.31.39.15.15,0,0,1-.24-.16l0-.12a.14.14,0,0,1,.07-.11,2.26,2.26,0,0,1,1.48-.47,1.91,1.91,0,0,1,2,2.08v3.93a.18.18,0,0,1-.18.18h0a.19.19,0,0,1-.19-.16Zm-1.75.06a2.31,2.31,0,0,0,1.68-.83.15.15,0,0,0,0-.1V72.38a.16.16,0,0,0-.16-.16c-2,.16-3.07.69-3.07,1.7C152.47,74.78,153,75.25,154,75.25Z"/><path class="cls-1" d="M163.26,75.68c-1.39,0-2.25-.53-2.25-3V70.06a.16.16,0,0,0-.16-.15h-1.17a.15.15,0,0,1-.15-.15v-.14a.16.16,0,0,1,.15-.16h1.17a.16.16,0,0,0,.16-.15V66.9a.15.15,0,0,1,.15-.15h.12a.16.16,0,0,1,.16.15v2.41a.15.15,0,0,0,.15.15h2.48a.16.16,0,0,1,.16.16v.14a.16.16,0,0,1-.16.15h-2.48a.15.15,0,0,0-.15.15v2.55c0,2,.51,2.59,1.85,2.59a3.13,3.13,0,0,0,1-.13.16.16,0,0,1,.2.18l0,.16a.22.22,0,0,1-.11.12A4.09,4.09,0,0,1,163.26,75.68Z"/><path class="cls-1" d="M167.09,69.46h2.53a.16.16,0,0,1,.16.16V75a.16.16,0,0,0,.15.16h2a.15.15,0,0,1,.15.15v.14a.15.15,0,0,1-.15.15h-4.83a.15.15,0,0,1-.15-.15V75.3a.15.15,0,0,1,.15-.15h2.1a.16.16,0,0,0,.16-.16V70.06a.16.16,0,0,0-.16-.15h-2.1a.15.15,0,0,1-.15-.15v-.14A.16.16,0,0,1,167.09,69.46Zm2.74-2.73v.54a.15.15,0,0,1-.15.15h-.42a.16.16,0,0,1-.16-.15v-.54a.16.16,0,0,1,.16-.16h.42A.16.16,0,0,1,169.83,66.73Z"/><path class="cls-1" d="M174.56,72.53c0-2,1.08-3.15,2.41-3.15,1.49,0,2.36,1.23,2.36,3.14s-1,3.16-2.42,3.16S174.56,74.45,174.56,72.53Zm4.34,0c0-1.7-.75-2.68-1.93-2.68s-2,.93-2,2.67.8,2.68,1.94,2.68S178.9,74.26,178.9,72.53Z"/><path class="cls-1" d="M182.9,70.8v4.64a.15.15,0,0,1-.15.15h-.12a.16.16,0,0,1-.16-.15V69.65a.18.18,0,0,1,.18-.19h0a.19.19,0,0,1,.19.17l0,.25a.15.15,0,0,0,.25.1,2.23,2.23,0,0,1,1.53-.58c1.14,0,1.82.73,1.82,2.29v3.75a.15.15,0,0,1-.15.15h-.12a.16.16,0,0,1-.16-.15V71.83c0-1.45-.52-2-1.48-2a2.19,2.19,0,0,0-1.63.82A.21.21,0,0,0,182.9,70.8Z"/><path class="cls-1" d="M193.26,75.19a.15.15,0,0,0-.25-.1,2.34,2.34,0,0,1-1.57.61,1.64,1.64,0,0,1-1.88-1.77c0-1.25,1-2,3.52-2.16a.15.15,0,0,0,.14-.15v-.08a1.47,1.47,0,0,0-1.62-1.67,2.17,2.17,0,0,0-1.31.39.15.15,0,0,1-.24-.16l0-.12a.14.14,0,0,1,.07-.11,2.26,2.26,0,0,1,1.48-.47,1.91,1.91,0,0,1,2,2.08v3.93a.18.18,0,0,1-.18.18h0a.19.19,0,0,1-.19-.16Zm-1.75.06a2.31,2.31,0,0,0,1.68-.83.15.15,0,0,0,0-.1V72.38a.16.16,0,0,0-.16-.16c-2.05.16-3.07.69-3.07,1.7C190,74.78,190.52,75.25,191.51,75.25Z"/><path class="cls-1" d="M197.11,66.45h2.43a.16.16,0,0,1,.16.16V75a.16.16,0,0,0,.15.16h2a.15.15,0,0,1,.15.15v.14a.15.15,0,0,1-.15.15h-4.75a.16.16,0,0,1-.16-.15V75.3a.15.15,0,0,1,.16-.15h2a.16.16,0,0,0,.16-.16V67.06a.16.16,0,0,0-.16-.16h-2a.16.16,0,0,1-.16-.15v-.14A.16.16,0,0,1,197.11,66.45Z"/></svg>