<svg id="dothework" xmlns="http://www.w3.org/2000/svg" viewBox="0 0 240 180"><defs><style>.cls-1{fill:#63c;}.cls-2{fill:#fff;}</style></defs><title>dothework</title><rect class="cls-1" width="240" height="180"/><path class="cls-2" d="M18.66,123.23a6.1,6.1,0,0,0,1.5.68,6.83,6.83,0,0,0,2.2.33,4,4,0,0,0,2.55-.78,2.87,2.87,0,0,0,1-2.42,3.23,3.23,0,0,0-.56-1.91,7.28,7.28,0,0,0-1.4-1.5c-.56-.46-1.16-.9-1.81-1.34a15.83,15.83,0,0,1-1.81-1.46,7.47,7.47,0,0,1-1.4-1.84,5.2,5.2,0,0,1-.56-2.49,4.21,4.21,0,0,1,1.42-3.5,5.74,5.74,0,0,1,3.69-1.13,11,11,0,0,1,2.49.25,6.21,6.21,0,0,1,1.77.65L27,108.62a5.07,5.07,0,0,0-1.44-.56,8.33,8.33,0,0,0-2.17-.26,3,3,0,0,0-2.25.75,2.55,2.55,0,0,0-.72,1.86,2.79,2.79,0,0,0,.56,1.74,7.54,7.54,0,0,0,1.4,1.43c.56.45,1.16.9,1.81,1.36A15.43,15.43,0,0,1,26,116.47a8,8,0,0,1,1.4,1.91A5.38,5.38,0,0,1,28,120.9a5.14,5.14,0,0,1-1.46,3.87,5.73,5.73,0,0,1-4.12,1.4,10.09,10.09,0,0,1-2.76-.31,7,7,0,0,1-1.73-.7Z"/><path class="cls-2" d="M29.26,111.81H31V109l2-.65v3.42h3v1.83H33V122a4,4,0,0,0,.29,1.78,1,1,0,0,0,1,.55,3.12,3.12,0,0,0,1-.13c.27-.08.56-.19.88-.32l.39,1.6a6.06,6.06,0,0,1-1.36.49,6.52,6.52,0,0,1-1.55.18,2.22,2.22,0,0,1-2-.91,5.55,5.55,0,0,1-.6-3v-8.63H29.26Z"/><path class="cls-2" d="M38.23,112.66a6.66,6.66,0,0,1,2-.79,10.22,10.22,0,0,1,2.45-.28,4.34,4.34,0,0,1,1.89.35,2.79,2.79,0,0,1,1.13,1,3.4,3.4,0,0,1,.53,1.38,10.39,10.39,0,0,1,.13,1.61c0,1.12,0,2.21-.08,3.28s-.07,2.08-.07,3c0,.71,0,1.37.07,2a11.45,11.45,0,0,0,.27,1.72H45l-.49-1.65h-.11A3.6,3.6,0,0,1,41,126a3.18,3.18,0,0,1-2.46-1,4.14,4.14,0,0,1-1-2.9,4.63,4.63,0,0,1,.4-2,3.47,3.47,0,0,1,1.14-1.32,5,5,0,0,1,1.76-.72,11.14,11.14,0,0,1,2.26-.21h.56l.58,0a15.11,15.11,0,0,0,.09-1.54,3.87,3.87,0,0,0-.48-2.24,2,2,0,0,0-1.72-.65,6.67,6.67,0,0,0-1.69.24,6.1,6.1,0,0,0-1.53.6Zm6,6.78-.55,0-.56,0a7.07,7.07,0,0,0-1.3.12,3.42,3.42,0,0,0-1.14.39,2.21,2.21,0,0,0-.79.76,2.29,2.29,0,0,0-.29,1.2,2.55,2.55,0,0,0,.54,1.74,1.79,1.79,0,0,0,1.4.62,2.64,2.64,0,0,0,1.8-.56,3.12,3.12,0,0,0,.89-1.24Z"/><path class="cls-2" d="M49.59,111.81H51l.36,1.49h.09a3.37,3.37,0,0,1,1-1.28,2.57,2.57,0,0,1,1.53-.46,5.32,5.32,0,0,1,1.46.25l-.4,2a3.9,3.9,0,0,0-1.29-.25,2,2,0,0,0-1.45.52,2.41,2.41,0,0,0-.73,1.39v10.31h-2Z"/><path class="cls-2" d="M56.54,111.81h1.71V109l2-.65v3.42h3v1.83h-3V122a3.87,3.87,0,0,0,.3,1.78,1,1,0,0,0,1,.55,3.08,3.08,0,0,0,1-.13,8.76,8.76,0,0,0,.88-.32l.4,1.6a6.44,6.44,0,0,1-1.36.49,6.66,6.66,0,0,1-1.56.18,2.23,2.23,0,0,1-2-.91,5.55,5.55,0,0,1-.6-3v-8.63H56.54Z"/><path class="cls-2" d="M39,147.23l.88,4.09h.21l.64-4.09,3.2-13.6H47l-5,18.91c-.39,1.51-.79,2.93-1.18,4.25a23.71,23.71,0,0,1-1.28,3.43A8,8,0,0,1,38,162.5a2.91,2.91,0,0,1-2,.82,5.27,5.27,0,0,1-2.07-.38l.51-2.86a2.16,2.16,0,0,0,1.18.08,2.05,2.05,0,0,0,1.11-.72,5.54,5.54,0,0,0,1-1.74,16.8,16.8,0,0,0,.78-3l-6.82-21.06H35Z"/><path class="cls-2" d="M48.68,144.16c0-3.79.66-6.58,2-8.36a6.52,6.52,0,0,1,5.58-2.67,6.39,6.39,0,0,1,5.71,2.73c1.22,1.83,1.83,4.59,1.83,8.3s-.66,6.61-2,8.38a6.53,6.53,0,0,1-5.56,2.65,6.36,6.36,0,0,1-5.7-2.74C49.29,150.63,48.68,147.86,48.68,144.16Zm3.16,0a23.08,23.08,0,0,0,.23,3.37,9.46,9.46,0,0,0,.76,2.61,4.35,4.35,0,0,0,1.37,1.7,3.32,3.32,0,0,0,2,.61,3.55,3.55,0,0,0,3.29-1.95q1.1-2,1.09-6.34a23.2,23.2,0,0,0-.23-3.35,9.51,9.51,0,0,0-.76-2.63,4.46,4.46,0,0,0-1.37-1.71,3.38,3.38,0,0,0-2-.61,3.54,3.54,0,0,0-3.26,2Q51.84,139.82,51.84,144.16Z"/><path class="cls-2" d="M70.54,133.63v12.89a11.35,11.35,0,0,0,.65,4.56,2.4,2.4,0,0,0,2.38,1.37,3.5,3.5,0,0,0,1.58-.35,4.56,4.56,0,0,0,1.24-.95,6.85,6.85,0,0,0,1-1.35,8.24,8.24,0,0,0,.67-1.56V133.63h3v15.08c0,1,0,2,.11,3.13a25.18,25.18,0,0,0,.32,2.85H79.34l-.76-2.95h-.13a7.15,7.15,0,0,1-2.06,2.42,5.37,5.37,0,0,1-3.37,1,7.34,7.34,0,0,1-2.36-.34,3.68,3.68,0,0,1-1.72-1.22,5.91,5.91,0,0,1-1.08-2.42,18.38,18.38,0,0,1-.35-3.94V133.63Z"/><path class="cls-2" d="M86.07,133.63h2.15l.55,2.23h.13A5,5,0,0,1,90.43,134a3.74,3.74,0,0,1,2.3-.7,7.64,7.64,0,0,1,2.19.38l-.59,3.08a5.86,5.86,0,0,0-1.94-.38,3.09,3.09,0,0,0-2.19.78,3.65,3.65,0,0,0-1.09,2.08v15.5h-3Z"/><path class="cls-2" d="M193.23,143.81l11.44-4.07,3.71-.81v-.17l-3.76-.63-11.39-2.86V130l22.57,6.88v4.3l-12.52,4.51-2.81.58v.22l2.86.54,12.47,4.29v4.42l-22.57,7.2v-6.3l11.21-3.26,4-.54v-.22l-4-.76-11.17-3.71Z"/><path class="cls-2" d="M204.4,129.24c-3.78,0-6.7-.93-8.74-2.77a10,10,0,0,1-3.06-7.78,11.59,11.59,0,0,1,.85-4.65,8.67,8.67,0,0,1,2.39-3.26,10.26,10.26,0,0,1,3.73-1.94,16.7,16.7,0,0,1,4.83-.65c3.78,0,6.7.91,8.74,2.75s3.06,4.41,3.06,7.75a11.77,11.77,0,0,1-.85,4.65,8.9,8.9,0,0,1-2.39,3.28,10,10,0,0,1-3.73,2A17,17,0,0,1,204.4,129.24Zm0-6a13,13,0,0,0,2.73-.27,8,8,0,0,0,2.19-.8,3.93,3.93,0,0,0,1.45-1.41,4,4,0,0,0,.51-2.08,3.83,3.83,0,0,0-1.65-3.4,9.59,9.59,0,0,0-5.23-1.11,10.48,10.48,0,0,0-5,1,3.64,3.64,0,0,0-1.9,3.49,3.93,3.93,0,0,0,1.61,3.35Q200.74,123.26,204.4,123.25Z"/><path class="cls-2" d="M198.68,91.83a7.54,7.54,0,0,0-.49,2.5A4.1,4.1,0,0,0,199,97a4,4,0,0,0,2.13,1.41h14.43v5.81H193.23V99.65l3-.67V98.8a6.11,6.11,0,0,1-2.55-2,5.21,5.21,0,0,1-.89-3,8.41,8.41,0,0,1,.49-2.64Z"/><path class="cls-2" d="M206.32,81.11v1.56h9.25v5.81H184.29V82.67h18.46l-.63-1.34-8.89-5.09v-6.4l8.49,5.37,1.7,2.28L205.16,75l10.41-6v6.65Z"/><g id="background"><path class="cls-2" d="M107.65,83.53l10.22,10.21,1.1,1.11a1.21,1.21,0,0,0,.84.35h23.45a1.34,1.34,0,0,0,.92-.38h0l11.44-11.28a.35.35,0,0,0-.24-.59H107.89A.34.34,0,0,0,107.65,83.53Z"/><path class="cls-2" d="M159.12,83.1l-21.21,21.05a.47.47,0,0,0-.15.35v2a.34.34,0,0,0,.58.24Q150,95.16,161.58,83.53a.34.34,0,0,0-.24-.58h-1.86A.53.53,0,0,0,159.12,83.1Z"/><path class="cls-2" d="M165.24,83.1l-27.33,27.17a.48.48,0,0,0-.15.36v2a.34.34,0,0,0,.58.24l29.53-29.37a.34.34,0,0,0-.24-.58h-2A.55.55,0,0,0,165.24,83.1Z"/><path class="cls-2" d="M171.36,83.1l-33.45,33.29a.48.48,0,0,0-.15.36v2a.34.34,0,0,0,.58.24L174,83.53a.34.34,0,0,0-.24-.58h-2A.55.55,0,0,0,171.36,83.1Z"/><path class="cls-2" d="M107.54,128.69a.63.63,0,0,0-.57.64c1,14.76,10.35,27.17,23.7,31.74,11,3.77,25.08,2.17,34.76-7.51,13.92-13.92,7.86-33.68,7.52-34.74a35.27,35.27,0,0,0-12.5-17.3l-.56-.44a.66.66,0,0,0-.9.06l-.34.35-6.2,6.21-1.32,1.37a.69.69,0,0,0,.13,1.05l1.56.95a20.45,20.45,0,0,1,8.35,11.28c2.1,6.27,1.75,15.53-4.77,22.05-6.24,6.24-15.24,7.09-22.06,4.77-9.54-3.24-14.62-12.45-15.06-19.75,0-.43-.23-.72-.68-.73"/></g></svg>