<svg xmlns="http://www.w3.org/2000/svg" viewBox="0 0 240 180"><defs><style>.cls-1{fill:#00a9ff;}.cls-2{fill:none;stroke:#fff;stroke-miterlimit:10;stroke-width:2px;}.cls-3{fill:#fff;}</style></defs><title>empowerblue</title><g id="joinworktext"><rect class="cls-1" width="240" height="180"/><line class="cls-2" y1="126" x2="180" y2="126"/><line class="cls-2" x1="180" x2="180" y2="179"/><path class="cls-3" d="M28.12,113.29A8.25,8.25,0,0,1,25,115a12.85,12.85,0,0,1-4,.6,8.64,8.64,0,0,1-4.12-.93A7.83,7.83,0,0,1,14.07,112a12.48,12.48,0,0,1-1.67-4.17,26,26,0,0,1-.53-5.47q0-6.47,2.38-9.86A7.75,7.75,0,0,1,21,89.1a11.16,11.16,0,0,1,2.81.36,5.66,5.66,0,0,1,2.51,1.42,7.42,7.42,0,0,1,1.79,3,15.11,15.11,0,0,1,.69,5c0,.58,0,1.19-.08,1.85s-.11,1.34-.18,2H15.67a20.73,20.73,0,0,0,.35,4,9.21,9.21,0,0,0,1.12,3,5.49,5.49,0,0,0,1.94,1.92,5.84,5.84,0,0,0,3,.68,7.51,7.51,0,0,0,2.71-.5,5.59,5.59,0,0,0,2.05-1.22ZM25.28,99.73q.11-3.8-1.06-5.56A3.62,3.62,0,0,0,21,92.39a4.4,4.4,0,0,0-3.69,1.78,10.28,10.28,0,0,0-1.62,5.56Z"/><path class="cls-3" d="M45.73,115V100c0-1.35,0-2.51-.13-3.47a7.3,7.3,0,0,0-.53-2.35A2.91,2.91,0,0,0,44,92.82a3.68,3.68,0,0,0-1.88-.43,3.75,3.75,0,0,0-2.91,1.35,7.35,7.35,0,0,0-1.64,3.06V115H33.89V89.71h2.58l.66,2.68h.15A8.9,8.9,0,0,1,39.81,90a7,7,0,0,1,3.74-.92,5.5,5.5,0,0,1,3.16.84,5.5,5.5,0,0,1,1.95,3,6.79,6.79,0,0,1,2.61-2.78,7.08,7.08,0,0,1,3.72-1,8.35,8.35,0,0,1,2.86.44,3.84,3.84,0,0,1,1.92,1.51,8,8,0,0,1,1.09,2.89,23.79,23.79,0,0,1,.35,4.53V115H57.57V98.92A14.38,14.38,0,0,0,56.94,94q-.63-1.62-2.91-1.62A4.05,4.05,0,0,0,51,93.58a6.75,6.75,0,0,0-1.6,3.22V115Z"/><path class="cls-3" d="M66.83,89.71h2.58L70,92.44h.2A6.28,6.28,0,0,1,76,89.1a6.74,6.74,0,0,1,6,3q2,3,2,9.77a23,23,0,0,1-.66,5.74A13.77,13.77,0,0,1,81.51,112a8.38,8.38,0,0,1-3,2.74,8.14,8.14,0,0,1-3.87.93,12.85,12.85,0,0,1-2.33-.17,6.77,6.77,0,0,1-1.87-.74v10.43H66.83ZM70.48,111a5.82,5.82,0,0,0,1.59,1,6.36,6.36,0,0,0,2.35.35,4.74,4.74,0,0,0,4.25-2.73q1.58-2.73,1.57-7.79A23.74,23.74,0,0,0,80,98a10.54,10.54,0,0,0-.88-3,5.09,5.09,0,0,0-1.54-1.92,3.81,3.81,0,0,0-2.31-.69c-2.46,0-4,1.51-4.75,4.51Z"/><path class="cls-3" d="M87.73,102.36q0-6.83,2.35-10a7.84,7.84,0,0,1,6.71-3.22q4.65,0,6.86,3.29t2.2,10q0,6.89-2.38,10.07a7.84,7.84,0,0,1-6.68,3.19c-3.1,0-5.39-1.09-6.86-3.29S87.73,106.82,87.73,102.36Zm3.8,0a26.28,26.28,0,0,0,.28,4,10.67,10.67,0,0,0,.91,3.14,5.31,5.31,0,0,0,1.64,2,4,4,0,0,0,2.43.73,4.26,4.26,0,0,0,3.95-2.35c.88-1.57,1.31-4.11,1.31-7.62a27.84,27.84,0,0,0-.27-4,11,11,0,0,0-.92-3.16,5.31,5.31,0,0,0-1.64-2.05,4,4,0,0,0-2.43-.74,4.27,4.27,0,0,0-3.92,2.38C92,96.36,91.53,98.89,91.53,102.36Z"/><path class="cls-3" d="M123.76,89.71l4.51,14.78.91,4.86h.1l.76-5,3.44-14.68h3.44l-6.73,25.86h-2.07L123,99l-.71-4.25h-.1l-.71,4.3-5,16.55h-2.08l-6.93-25.86h3.8l3.89,14.73.71,4.91h.1l.91-5,4.15-14.63Z"/><path class="cls-3" d="M154.79,113.29A8.25,8.25,0,0,1,151.7,115a12.85,12.85,0,0,1-3.95.6,8.64,8.64,0,0,1-4.12-.93,7.83,7.83,0,0,1-2.89-2.69,12.48,12.48,0,0,1-1.67-4.17,26,26,0,0,1-.53-5.47q0-6.47,2.38-9.86a7.75,7.75,0,0,1,6.73-3.4,11.16,11.16,0,0,1,2.81.36A5.66,5.66,0,0,1,153,90.88a7.42,7.42,0,0,1,1.79,3,15.11,15.11,0,0,1,.69,5c0,.58,0,1.19-.08,1.85s-.11,1.34-.18,2H142.34a20.73,20.73,0,0,0,.35,4,9.21,9.21,0,0,0,1.12,3,5.49,5.49,0,0,0,1.94,1.92,5.84,5.84,0,0,0,3,.68,7.51,7.51,0,0,0,2.71-.5,5.59,5.59,0,0,0,2.05-1.22ZM152,99.73q.11-3.8-1.06-5.56a3.62,3.62,0,0,0-3.19-1.78A4.4,4.4,0,0,0,144,94.17a10.28,10.28,0,0,0-1.62,5.56Z"/><path class="cls-3" d="M160.56,89.71h2.58l.65,2.68H164a6.17,6.17,0,0,1,1.84-2.3,4.58,4.58,0,0,1,2.76-.83,9,9,0,0,1,2.63.45l-.7,3.7a7.14,7.14,0,0,0-2.33-.46,3.69,3.69,0,0,0-2.63.94,4.4,4.4,0,0,0-1.32,2.5V115h-3.64Z"/><path class="cls-3" d="M104,152.06,105,157h.25l.76-4.91,3.85-16.35h3.69l-6,22.72c-.47,1.83-.94,3.53-1.41,5.12a28.92,28.92,0,0,1-1.55,4.12,9.25,9.25,0,0,1-1.87,2.73,3.44,3.44,0,0,1-2.46,1,6.17,6.17,0,0,1-2.48-.46l.61-3.44a2.39,2.39,0,0,0,2.76-.76,6.73,6.73,0,0,0,1.16-2.1,20.15,20.15,0,0,0,.94-3.61l-8.2-25.31h4.15Z"/><path class="cls-3" d="M115.62,148.36q0-6.83,2.35-10a7.84,7.84,0,0,1,6.71-3.22c3.1,0,5.39,1.1,6.85,3.29s2.21,5.52,2.21,10-.8,7.95-2.38,10.07a7.86,7.86,0,0,1-6.68,3.19c-3.11,0-5.39-1.09-6.86-3.29S115.62,152.82,115.62,148.36Zm3.79,0a27.59,27.59,0,0,0,.28,4,11.31,11.31,0,0,0,.91,3.14,5.24,5.24,0,0,0,1.65,2,4,4,0,0,0,2.43.73,4.26,4.26,0,0,0,3.95-2.35q1.31-2.35,1.31-7.62a26.43,26.43,0,0,0-.28-4,11,11,0,0,0-.91-3.16,5.31,5.31,0,0,0-1.64-2.05,4,4,0,0,0-2.43-.74,4.29,4.29,0,0,0-3.93,2.38Q119.42,143.16,119.41,148.36Z"/><path class="cls-3" d="M141.88,135.71V151.2a13.67,13.67,0,0,0,.79,5.49,2.87,2.87,0,0,0,2.86,1.64,4,4,0,0,0,1.89-.43,5.15,5.15,0,0,0,1.5-1.14,8.38,8.38,0,0,0,1.16-1.61,10,10,0,0,0,.81-1.88V135.71h3.64v18.12c0,1.21.05,2.47.13,3.77A34.23,34.23,0,0,0,155,161h-2.58l-.91-3.55h-.15a8.58,8.58,0,0,1-2.48,2.91,6.45,6.45,0,0,1-4,1.24,9,9,0,0,1-2.84-.4,4.41,4.41,0,0,1-2.07-1.47,7.27,7.27,0,0,1-1.29-2.91,21.24,21.24,0,0,1-.43-4.73v-16.4Z"/><path class="cls-3" d="M160.56,135.71h2.58l.66,2.68H164a6.17,6.17,0,0,1,1.84-2.3,4.58,4.58,0,0,1,2.76-.83,9,9,0,0,1,2.63.45l-.7,3.7a7.14,7.14,0,0,0-2.33-.46,3.69,3.69,0,0,0-2.63.94,4.4,4.4,0,0,0-1.32,2.5V161h-3.64Z"/><path class="cls-3" d="M217.76,151.15a8.93,8.93,0,0,1,1.34,2.9,13.66,13.66,0,0,1,.46,3.5,9.84,9.84,0,0,1-.76,4.06,6.9,6.9,0,0,1-2.14,2.7,8.9,8.9,0,0,1-3.34,1.5,18.77,18.77,0,0,1-4.32.46c-3.39,0-6-.76-7.82-2.28a8.13,8.13,0,0,1-2.74-6.64,14.11,14.11,0,0,1,.36-3.54,12.3,12.3,0,0,1,.92-2.42l4.24,1.24a11,11,0,0,0-.68,1.82,8,8,0,0,0-.24,2.06,3.92,3.92,0,0,0,1.42,3.28,7.33,7.33,0,0,0,4.54,1.12,9.26,9.26,0,0,0,2.36-.28,5.48,5.48,0,0,0,1.88-.84,4,4,0,0,0,1.26-1.46,4.64,4.64,0,0,0,.46-2.1,6.68,6.68,0,0,0-.34-2.24,8.1,8.1,0,0,0-.82-1.64Z"/><path class="cls-3" d="M209,149.63c-3.39,0-6-.83-7.82-2.48a8.89,8.89,0,0,1-2.74-7,10.4,10.4,0,0,1,.76-4.16,7.89,7.89,0,0,1,2.14-2.92,9.23,9.23,0,0,1,3.34-1.74,15.46,15.46,0,0,1,4.32-.58q5.07,0,7.82,2.46a8.88,8.88,0,0,1,2.74,6.94,10.54,10.54,0,0,1-.76,4.16,8,8,0,0,1-2.14,2.94,8.82,8.82,0,0,1-3.34,1.76A15.1,15.1,0,0,1,209,149.63Zm0-5.36a11.67,11.67,0,0,0,2.44-.24,6.77,6.77,0,0,0,2-.72,3.5,3.5,0,0,0,1.3-1.26,3.66,3.66,0,0,0,.46-1.86,3.42,3.42,0,0,0-1.48-3,8.61,8.61,0,0,0-4.68-1,9.39,9.39,0,0,0-4.46.92,3.28,3.28,0,0,0-1.7,3.12,3.54,3.54,0,0,0,1.44,3A8,8,0,0,0,209,144.27Z"/><path class="cls-3" d="M203.88,116.15a6.91,6.91,0,0,0-.44,2.24,3.66,3.66,0,0,0,.74,2.34,3.53,3.53,0,0,0,1.9,1.26H219v5.2H199v-4l2.64-.6v-.16a5.34,5.34,0,0,1-2.28-1.84,4.69,4.69,0,0,1-.8-2.72,7.68,7.68,0,0,1,.44-2.36Z"/><path class="cls-3" d="M217.28,97.15a10.21,10.21,0,0,1,1.62,3.26,14.33,14.33,0,0,1,.66,4.38q0,4.84-2.82,7.08c-1.88,1.5-4.46,2.24-7.74,2.24q-5.28,0-7.92-2.52a9.32,9.32,0,0,1-2.64-7.08,10.89,10.89,0,0,1,.4-3A7,7,0,0,1,200.16,99a6.61,6.61,0,0,1,2.48-1.8,9.77,9.77,0,0,1,3.88-.68c.56,0,1.16,0,1.8.1s1.31.17,2,.3v12a5.89,5.89,0,0,0,3.8-1.29,5,5,0,0,0,1.28-3.81,8.18,8.18,0,0,0-.5-2.93,7.88,7.88,0,0,0-1-2Zm-14.68,7.43a3.62,3.62,0,0,0,1.22,3,6,6,0,0,0,3.26,1.17v-7.4a5.11,5.11,0,0,0-3.32.66A2.93,2.93,0,0,0,202.6,104.58Z"/><path class="cls-3" d="M205.2,93v-10h4.6V93Z"/><path class="cls-3" d="M213.48,70.16a1.48,1.48,0,0,0-1.28.68,7.72,7.72,0,0,0-.88,1.68c-.27.66-.54,1.4-.82,2.2a8.41,8.41,0,0,1-1.16,2.2,6.5,6.5,0,0,1-1.88,1.68A6.69,6.69,0,0,1,200,77.52a7.44,7.44,0,0,1-1.56-5.08,16.3,16.3,0,0,1,.48-4.12A11.81,11.81,0,0,1,200,65.44l3.76,1.16c-.24.61-.49,1.38-.76,2.32a10.15,10.15,0,0,0-.4,2.84c0,1.54.6,2.32,1.8,2.32a1.33,1.33,0,0,0,1.16-.68,9.4,9.4,0,0,0,.82-1.68c.25-.67.53-1.4.82-2.2a9.17,9.17,0,0,1,1.14-2.2,5.88,5.88,0,0,1,1.82-1.68A5.44,5.44,0,0,1,213,65a6.07,6.07,0,0,1,4.78,1.94q1.74,1.93,1.74,5.82a14.23,14.23,0,0,1-.54,4,12.36,12.36,0,0,1-1.26,3l-3.88-1.44a13.7,13.7,0,0,0,1-2.44,10.08,10.08,0,0,0,.5-3.12,3.46,3.46,0,0,0-.44-1.86A1.6,1.6,0,0,0,213.48,70.16Z"/><path class="cls-3" d="M217.28,45.56a10.11,10.11,0,0,1,1.62,3.26,14.24,14.24,0,0,1,.66,4.38q0,4.83-2.82,7.08A12.15,12.15,0,0,1,209,62.52q-5.28,0-7.92-2.52a9.32,9.32,0,0,1-2.64-7.08,10.84,10.84,0,0,1,.4-3,6.94,6.94,0,0,1,1.32-2.56,6.4,6.4,0,0,1,2.48-1.8,9.6,9.6,0,0,1,3.88-.68,16.54,16.54,0,0,1,1.8.1,19,19,0,0,1,2,.3v12a5.84,5.84,0,0,0,3.8-1.3,5,5,0,0,0,1.28-3.81,8.13,8.13,0,0,0-.5-2.92,7.79,7.79,0,0,0-1-2ZM202.6,53a3.62,3.62,0,0,0,1.22,3,6.1,6.1,0,0,0,3.26,1.18v-7.4a5.05,5.05,0,0,0-3.32.65A2.94,2.94,0,0,0,202.6,53Z"/><path class="cls-3" d="M212.28,35.88a4.37,4.37,0,0,0,2-.36,1.23,1.23,0,0,0,.64-1.16,5.77,5.77,0,0,0-.08-.94,5.17,5.17,0,0,0-.36-1.14l4.08-.56a10.39,10.39,0,0,1,.64,2,11.64,11.64,0,0,1,.32,2.72,5.13,5.13,0,0,1-1.06,3.48,4.46,4.46,0,0,1-3.5,1.2H191v-5.2Z"/><path class="cls-3" d="M199,31.32V28.56h-1.12c-2.53,0-4.37-.53-5.5-1.6a6.08,6.08,0,0,1-1.7-4.64,15.86,15.86,0,0,1,.76-5.32l4.16,1a9.26,9.26,0,0,0-.42,1.62,9.85,9.85,0,0,0-.1,1.46,2.77,2.77,0,0,0,.24,1.26,1.49,1.49,0,0,0,.74.68,3.78,3.78,0,0,0,1.24.28c.49,0,1.06.06,1.7.06V19h4.4v4.4H219v5.2H203.4v2.76Z"/></g></svg>