<svg id="Layer_1" data-name="Layer 1" xmlns="http://www.w3.org/2000/svg" viewBox="0 0 32 32"><defs><style>.cls-1{fill:#63c;}.cls-2{fill:#fff;}</style></defs><title>favicon</title><circle class="cls-1" cx="16" cy="16" r="16"/><g id="number3"><path class="cls-2" d="M7.72,6.94,10.28,9.5l.27.27a.28.28,0,0,0,.2.09h5.87a.32.32,0,0,0,.23-.09h0l2.86-2.83a.07.07,0,0,0,0-.11.06.06,0,0,0-.06,0H7.78a.1.1,0,0,0-.09.08A.06.06,0,0,0,7.72,6.94Z"/><path class="cls-2" d="M20.59,6.84,15.28,12.1a.12.12,0,0,0,0,.09v.51a.08.08,0,0,0,.08.08l.06,0L21.2,6.94a.07.07,0,0,0,0-.11.09.09,0,0,0-.06,0h-.47A.11.11,0,0,0,20.59,6.84Z"/><path class="cls-2" d="M22.12,6.84l-6.84,6.8a.12.12,0,0,0,0,.09v.51a.08.08,0,0,0,.08.08l.06,0,7.39-7.36a.08.08,0,0,0,0-.11.09.09,0,0,0-.06,0h-.51A.11.11,0,0,0,22.12,6.84Z"/><path class="cls-2" d="M23.65,6.84l-8.37,8.32a.14.14,0,0,0,0,.09v.51a.08.08,0,0,0,.08.08l.06,0,8.92-8.88a.08.08,0,0,0,0-.11.09.09,0,0,0-.06,0h-.51A.11.11,0,0,0,23.65,6.84Z"/><path class="cls-2" d="M7.7,18.24a.16.16,0,0,0-.15.16,8.91,8.91,0,0,0,5.93,7.93,8.48,8.48,0,0,0,8.69-1.88C25.65,21,24.13,16,24,15.77a8.8,8.8,0,0,0-3.12-4.33l-.14-.11a.16.16,0,0,0-.22,0l-.09.09L18.92,13l-.33.35a.16.16,0,0,0,0,.23l0,0,.4.23a5.14,5.14,0,0,1,2.09,2.82,5.44,5.44,0,0,1-1.2,5.52,5.4,5.4,0,0,1-5.52,1.2,5.74,5.74,0,0,1-3.76-5,.16.16,0,0,0-.17-.18"/></g></svg>