<svg xmlns="http://www.w3.org/2000/svg" viewBox="0 0 960 320"><defs><style>.cls-1{fill:#ff8b2a;stroke:#000;}.cls-1,.cls-12,.cls-2{stroke-miterlimit:10;}.cls-12,.cls-2{fill:none;}.cls-2{stroke:#c56028;stroke-width:3px;}.cls-11,.cls-16,.cls-3,.cls-6,.cls-9{fill:#fff;}.cls-4{fill:#00a9ff;}.cls-5{fill:#63c;}.cls-6{font-size:105.93px;font-family:FuturaPTCond-Medium, Futura PT Cond;}.cls-12,.cls-6{font-weight:500;}.cls-7{letter-spacing:-0.01em;}.cls-8{letter-spacing:0em;}.cls-9{font-size:36.66px;}.cls-11,.cls-9{font-family:FuturaPTCond-Book, Futura PT Cond;}.cls-10{letter-spacing:-0.01em;}.cls-11{font-size:50.78px;}.cls-12{font-size:82.81px;stroke:#fff;font-family:FuturaPTCond-MediumObl, Futura PT Cond;font-style:oblique;}.cls-13{letter-spacing:0.01em;}.cls-14{letter-spacing:0em;}.cls-15{letter-spacing:0em;}.cls-16{font-size:90.99px;font-family:PTSans-Narrow, PT Sans Narrow;}.cls-17{fill:#ffea6a;}</style></defs><title>howarewedifferent</title><g id="Diferent"><rect class="cls-1" width="960" height="320"/><circle class="cls-2" cx="767.5" cy="129.5" r="48"/><circle class="cls-2" cx="358.5" cy="170.5" r="45"/><circle class="cls-2" cx="518" cy="120" r="30.5"/><path class="cls-3" d="M539.32,36.82l32,31.88,3.43,3.47a3.71,3.71,0,0,0,2.63,1.09H650.6a4.07,4.07,0,0,0,2.88-1.18h0l35.75-35.26a1.06,1.06,0,0,0-.75-1.82H540.07A1.07,1.07,0,0,0,539.32,36.82Z"/><path class="cls-3" d="M700.18,35.46l-66.29,65.77a1.57,1.57,0,0,0-.47,1.12v6.34a1.07,1.07,0,0,0,1.82.75l72.62-72.62a1.07,1.07,0,0,0-.75-1.82h-5.82A1.57,1.57,0,0,0,700.18,35.46Z"/><path class="cls-3" d="M719.31,35.46l-85.42,84.9a1.57,1.57,0,0,0-.47,1.12v6.35a1.06,1.06,0,0,0,1.81.75l92.28-91.76a1.07,1.07,0,0,0-.75-1.82h-6.34A1.57,1.57,0,0,0,719.31,35.46Z"/><path class="cls-3" d="M738.44,35.46l-104.55,104a1.57,1.57,0,0,0-.47,1.12V147a1.06,1.06,0,0,0,1.81.75L746.64,36.82a1.07,1.07,0,0,0-.75-1.82h-6.34A1.57,1.57,0,0,0,738.44,35.46Z"/><path class="cls-3" d="M539,177.94a2,2,0,0,0-1.78,2c3,46.12,32.32,84.9,74,99.19,34.39,11.78,78.38,6.78,108.63-23.47,43.5-43.51,24.57-105.24,23.48-108.57-9.69-29.76-29.11-46.51-39-54.07l-1.75-1.37a2.1,2.1,0,0,0-2.83.2l-1.06,1.1-19.36,19.4-4.13,4.29a2.11,2.11,0,0,0,.42,3.26c2.06,1.26,4.8,2.92,4.88,3,20,12.79,25.41,33.22,26.08,35.23,6.56,19.61,5.48,48.55-14.9,68.93-19.5,19.5-47.64,22.15-69,14.9-29.8-10.14-45.67-38.91-47.06-61.72-.08-1.35-.72-2.26-2.12-2.28"/><rect class="cls-4" x="369.07" y="138.53" width="257.85" height="90.53" rx="15"/><rect class="cls-5" x="226" y="77.1" width="219.05" height="74.36" rx="20"/><text class="cls-6" transform="translate(242.84 136.29) scale(0.99 1)">H<tspan class="cls-7" x="43.86" y="0">o</tspan><tspan class="cls-8" x="79.24" y="0">w</tspan></text><text class="cls-9" transform="translate(374.24 103.42)">a<tspan class="cls-10" x="11.99" y="0">r</tspan><tspan x="18.92" y="0">e</tspan></text><text class="cls-11" transform="translate(375.68 141.05) scale(1.04 1)">WE</text><text class="cls-12" transform="translate(382.2 215.63)">di<tspan class="cls-13" x="42.64" y="0">f</tspan><tspan class="cls-14" x="61.36" y="0">f</tspan><tspan x="78.66" y="0">e</tspan><tspan class="cls-15" x="105.24" y="0">r</tspan><tspan x="124.37" y="0">ent</tspan></text><text class="cls-16" transform="translate(582.46 215.71)">?</text><polygon class="cls-17" points="210.67 90.87 210.67 98.41 221.08 113.31 210.67 128.22 210.67 135.31 226.19 113.09 210.67 90.87"/><polygon class="cls-17" points="219.33 90.87 219.33 98.41 229.75 113.31 219.33 128.22 219.33 135.31 234.86 113.09 219.33 90.87"/><polygon class="cls-17" points="202 91.09 202 98.63 212.41 113.54 202 128.44 202 135.54 217.53 113.31 202 91.09"/><circle class="cls-2" cx="177" cy="239" r="48.5"/><circle class="cls-2" cx="102" cy="183" r="10"/><circle class="cls-2" cx="139.5" cy="113.5" r="28"/><circle class="cls-2" cx="886.5" cy="206.5" r="29"/><circle class="cls-2" cx="909" cy="90" r="4.5"/><circle class="cls-2" cx="689.5" cy="277.5" r="20"/><circle class="cls-2" cx="493.5" cy="263.5" r="20"/><circle class="cls-2" cx="199.5" cy="25.5" r="13"/><circle class="cls-2" cx="614.5" cy="35.5" r="8"/><circle class="cls-2" cx="38" cy="30" r="16.5"/><circle class="cls-2" cx="848" cy="45" r="9.5"/><circle class="cls-2" cx="815" cy="130" r="9.5"/><circle class="cls-2" cx="420.5" cy="291.5" r="6"/><circle class="cls-2" cx="267.5" cy="195.5" r="13"/><circle class="cls-2" cx="128.5" cy="252.5" r="13"/><circle class="cls-2" cx="433" cy="26" r="12.5"/></g></svg>