<svg id="Layer_1" data-name="Layer 1" xmlns="http://www.w3.org/2000/svg" viewBox="0 0 512 512"><defs><style>.cls-1{fill:#fff;}</style></defs><title>iconssocialmedia</title><path class="cls-1" d="M461.6,105.6V408a21.12,21.12,0,0,0-.75,2.63c-5,30-29.41,50.91-60,50.94q-144,.12-287.94,0c-34.47,0-60.8-26.34-60.84-60.8q-.14-144,.1-287.94a64.77,64.77,0,0,1,3.11-19.59C63.62,67.67,86.1,52,113.67,52q135.78,0,271.54,0c6.14,0,12.29-.26,18.4.11,23.48,1.41,41,12.49,51.58,33.5C458.3,91.78,459.52,98.91,461.6,105.6Zm-96,150.22c-.2-59.41-48.81-107.9-108.07-107.81S149.64,196.66,149.61,256s49,108.31,108.27,108C317.35,363.68,365.78,315,365.59,255.82ZM377,172c19.36.58,35.86-15.34,36.54-35.27.67-19.34-15.18-35.86-35.16-36.64-19.43-.76-36.26,15.47-36.75,35.46C341.15,154.9,357.13,171.37,377,172Z"/><path class="cls-1" d="M257.59,172a84,84,0,1,1-84,84A84.26,84.26,0,0,1,257.59,172Z"/><path class="cls-1" d="M377.59,148a12,12,0,1,1,12-12A12.08,12.08,0,0,1,377.59,148Z"/></svg>