<svg id="Layer_1" data-name="Layer 1" xmlns="http://www.w3.org/2000/svg" viewBox="0 0 512 512"><defs><style>.cls-1{fill:#fff;}</style></defs><title>iconssocialmedia</title><path class="cls-1" d="M54.13,380.48,147,348.27l.18-1.49c-29.85-14.72-43.93-40.67-51.41-71.43l3.83-.38a95.88,95.88,0,0,1-22.06-37.43c-4.49-14.2-3.81-28.56-2.08-43.4l9.12,3.28c-8.14-17.29-11.58-34.54-9.49-52.8s10.24-34.17,19.79-50.26c36.79,49.19,83.88,80.86,145.5,89.4-.21-4.46-.55-8.55-.56-12.63-.1-38,24.7-65.88,58.16-76.46,32.67-10.32,63.17-5.6,90.26,16.28,2,1.61,3.66,1.59,5.79.84q25.41-8.92,50.86-17.79c1.45-.51,2.93-.93,5.3-1.67-5.17,14.82-10,28.81-14.88,42.67h27.27c-.72,1-1.48,2.18-2.29,3.29-11.11,15.15-22,30.48-33.44,45.37-7.57,9.84-10.51,20.59-9.88,32.82,1.37,26.68-1.18,53-8.94,78.63-15,49.62-46.26,85.33-93,107.45-28.06,13.28-57.86,19.62-88.72,21.55-28.36,1.77-56.5.21-84.28-5.7-23.24-4.93-44.72-14.6-65.59-25.7C69.07,388.79,61.77,384.68,54.13,380.48Z"/></svg>