<svg id="Layer_1" data-name="Layer 1" xmlns="http://www.w3.org/2000/svg" viewBox="0 0 512 512"><defs><style>.cls-1{fill:#fff;}</style></defs><title>iconssocialmedia</title><path class="cls-1" d="M53.6,268.8v-24a27.67,27.67,0,0,0,.68-3.45c2-28.44,9.34-55.48,23.25-80.33C115.21,93.7,172.82,57.15,249.85,52.31a184.78,184.78,0,0,1,95.36,19.15c72.71,36.4,112.42,95.55,117.62,176.75,2.59,40.36-7.16,78.51-28.43,113C396.06,423.37,340,457,267,461.29a190.77,190.77,0,0,1-104.67-23.73Q75.71,389.89,56.83,292.45C55.33,284.65,54.66,276.69,53.6,268.8ZM315.37,133.46c-15.86.45-31.26-.15-46.4,1.56-21.88,2.47-32.62,13.18-35.56,35-1.73,12.86-1.19,26-1.65,39.06-.06,1.68,0,3.37,0,5.39H201.19v42.37h30.6V379.5h45.92V256.76h33.64c1.5-14.24,3-28.09,4.46-42.39H278.1c0-9.18-.24-17.94.08-26.68.26-7.18,3.48-10.44,10.66-10.91,7.43-.49,14.91-.38,22.36-.55,1.4,0,2.79-.14,4.17-.21Z"/></svg>