<svg id="number3" xmlns="http://www.w3.org/2000/svg" viewBox="0 0 960 960"><defs><style>.cls-1{fill:#00a9ff;}.cls-2{fill:#fff;}</style></defs><title>profileicon</title><rect class="cls-1" width="960" height="960"/><path class="cls-2" d="M215.07,164.64l81.81,81.62,8.79,8.88a9.44,9.44,0,0,0,6.72,2.8H499.94a10.52,10.52,0,0,0,7.39-3h0l91.51-90.26a2.72,2.72,0,0,0-1.91-4.66H217A2.72,2.72,0,0,0,215.07,164.64Z"/><path class="cls-2" d="M626.86,161.17,457.16,329.53a4.09,4.09,0,0,0-1.2,2.88v16.23a2.72,2.72,0,0,0,4.65,1.92L646.53,164.64A2.72,2.72,0,0,0,644.6,160H629.71A4.07,4.07,0,0,0,626.86,161.17Z"/><path class="cls-2" d="M675.83,161.18,457.16,378.51a4,4,0,0,0-1.2,2.87v16.26a2.72,2.72,0,0,0,4.64,1.93L696.83,164.65a2.72,2.72,0,0,0-1.92-4.65H678.69A4,4,0,0,0,675.83,161.18Z"/><path class="cls-2" d="M724.81,161.18,457.16,427.48a4,4,0,0,0-1.2,2.87v16.26a2.72,2.72,0,0,0,4.64,1.92L745.81,164.65a2.72,2.72,0,0,0-1.92-4.65H727.66A4,4,0,0,0,724.81,161.18Z"/><path class="cls-2" d="M214.24,525.93a5,5,0,0,0-4.56,5.07c7.66,118.09,82.75,217.37,189.56,254,88.06,30.16,200.68,17.36,278.1-60.08,111.36-111.38,62.91-269.43,60.13-277.94-24.81-76.2-74.53-119.09-100-138.43L633,305a5.41,5.41,0,0,0-7.25.51l-2.71,2.83L573.49,358l-10.56,11a5.4,5.4,0,0,0,1.07,8.36l12.48,7.61c51.15,32.75,65,85.07,66.77,90.21,16.81,50.2,14,124.28-38.15,176.46-49.91,49.92-122,56.71-176.53,38.14-76.29-26-116.92-99.61-120.47-158-.21-3.46-1.84-5.77-5.43-5.82"/></svg>