<svg xmlns="http://www.w3.org/2000/svg" viewBox="0 0 240 180"><defs><style>.cls-1{fill:#00a9ff;}.cls-2{fill:#fff;}</style></defs><title>Artboard 6</title><g id="Layer_5" data-name="Layer 5"><rect class="cls-1" width="240" height="180"/><path class="cls-2" d="M117,16.91l14.68,14.64,1.57,1.59a1.69,1.69,0,0,0,1.21.51h33.65a1.88,1.88,0,0,0,1.32-.55h0l16.42-16.19a.49.49,0,0,0-.34-.84H117.31A.49.49,0,0,0,117,16.91Z"/><path class="cls-2" d="M190.85,16.28,160.4,46.49a.72.72,0,0,0-.21.52v2.91a.48.48,0,0,0,.83.34l33.36-33.35a.49.49,0,0,0-.35-.84h-2.67A.75.75,0,0,0,190.85,16.28Z"/><path class="cls-2" d="M199.64,16.28l-39.24,39a.69.69,0,0,0-.21.51v2.92a.49.49,0,0,0,.83.35L203.4,16.91a.49.49,0,0,0-.34-.84h-2.91A.74.74,0,0,0,199.64,16.28Z"/><path class="cls-2" d="M208.42,16.29l-48,47.77a.72.72,0,0,0-.21.52v2.91a.49.49,0,0,0,.83.35l51.17-50.93a.49.49,0,0,0-.34-.84h-2.92A.72.72,0,0,0,208.42,16.29Z"/><path class="cls-2" d="M116.82,81.73a.89.89,0,0,0-.82.91c1.37,21.18,14.85,39,34,45.56,15.8,5.41,36,3.11,49.9-10.78,20-20,11.28-48.34,10.78-49.87a50.74,50.74,0,0,0-17.93-24.83l-.81-.63a1,1,0,0,0-1.3.09l-.48.51-8.9,8.91-1.89,2a1,1,0,0,0,.19,1.5l2.24,1.37a29.48,29.48,0,0,1,12,16.18c3,9,2.52,22.3-6.84,31.66-9,9-21.89,10.18-31.68,6.85-13.68-4.66-21-17.87-21.61-28.35,0-.62-.33-1-1-1"/><path class="cls-2" d="M169.74,142.12l3.53,11.59.72,3.81h.08l.59-3.89,2.7-11.51h2.7l-5.28,20.28h-1.63l-4-13-.56-3.33h-.08l-.56,3.37-3.88,13h-1.63L157,142.12h3L163,153.67l.56,3.85h.08l.71-3.93,3.26-11.47Z"/><path class="cls-2" d="M181.33,152q0-5.35,1.84-7.88a6.14,6.14,0,0,1,5.26-2.52,6,6,0,0,1,5.38,2.58q1.73,2.58,1.73,7.82c0,3.6-.63,6.23-1.87,7.9a6.17,6.17,0,0,1-5.24,2.5,6,6,0,0,1-5.38-2.58Q181.33,157.28,181.33,152Zm3,0a21.71,21.71,0,0,0,.22,3.17,8.57,8.57,0,0,0,.72,2.47,4.22,4.22,0,0,0,1.28,1.6,3.2,3.2,0,0,0,1.91.58,3.35,3.35,0,0,0,3.1-1.85q1-1.84,1-6a20.72,20.72,0,0,0-.22-3.16,8.64,8.64,0,0,0-.72-2.48,4,4,0,0,0-1.28-1.6,3.14,3.14,0,0,0-1.91-.58,3.33,3.33,0,0,0-3.07,1.87A12.64,12.64,0,0,0,184.3,152Z"/><path class="cls-2" d="M199.35,142.12h2l.51,2.1H202a4.87,4.87,0,0,1,1.45-1.8,3.56,3.56,0,0,1,2.17-.66,7,7,0,0,1,2.06.36l-.56,2.9a5.57,5.57,0,0,0-1.82-.36,2.93,2.93,0,0,0-2.07.73,3.57,3.57,0,0,0-1,2V162h-2.85Z"/><path class="cls-2" d="M214.59,153h-1.51V162h-2.86V134.18h2.86v16.91l1.31-.56,4.64-8.41h3.3l-4.69,8-1.39,1.27,1.63,1.55,5.12,9h-3.41Z"/><path class="cls-2" d="M48.44,68.48l.61,2.65h.2l.44-2.68,2.59-9.52h4.55L51.66,74.26c-.43,1.27-.84,2.43-1.24,3.49a15.93,15.93,0,0,1-1.3,2.74,6.21,6.21,0,0,1-1.59,1.78,3.39,3.39,0,0,1-2.05.63,5.87,5.87,0,0,1-2.83-.58l.82-3.53a2.85,2.85,0,0,0,1,.2A2.23,2.23,0,0,0,46,78.33a4.47,4.47,0,0,0,1.11-2.4L40,58.93h5.31Z"/><path class="cls-2" d="M57.45,67.43q0-4.32,2.1-6.65a7.6,7.6,0,0,1,5.92-2.33A8.91,8.91,0,0,1,69,59.1a6.51,6.51,0,0,1,2.48,1.82A7.76,7.76,0,0,1,73,63.76a12.83,12.83,0,0,1,.49,3.67c0,2.88-.69,5.09-2.09,6.65a7.52,7.52,0,0,1-5.9,2.33,8.83,8.83,0,0,1-3.53-.65,6.77,6.77,0,0,1-2.5-1.82,7.64,7.64,0,0,1-1.5-2.84A12.83,12.83,0,0,1,57.45,67.43Zm4.55,0a9.55,9.55,0,0,0,.21,2.07,5.68,5.68,0,0,0,.61,1.67,2.9,2.9,0,0,0,1.07,1.1,3.06,3.06,0,0,0,1.58.39,2.91,2.91,0,0,0,2.59-1.25,7.33,7.33,0,0,0,.85-4,8,8,0,0,0-.78-3.79,2.78,2.78,0,0,0-2.66-1.45,3,3,0,0,0-2.55,1.23A6.79,6.79,0,0,0,62,67.43Z"/><path class="cls-2" d="M80.77,58.93v9.66a6.65,6.65,0,0,0,.5,3,2,2,0,0,0,1.92.92,3,3,0,0,0,2.09-.75,4.62,4.62,0,0,0,1.24-1.84v-11h4.42V70.76c0,.93,0,1.84.14,2.74a17.35,17.35,0,0,0,.4,2.43H88.15l-.78-2.52h-.14a6.18,6.18,0,0,1-5.47,3,7.48,7.48,0,0,1-2.31-.34,3.75,3.75,0,0,1-1.7-1.13,5.17,5.17,0,0,1-1-2.1,13.05,13.05,0,0,1-.36-3.34V58.93Z"/><path class="cls-2" d="M104.2,63.08a5.76,5.76,0,0,0-1.9-.38,3.12,3.12,0,0,0-2,.63A3,3,0,0,0,99.24,65v11H94.82v-17h3.43l.51,2.24h.14a4.68,4.68,0,0,1,1.56-1.94,4,4,0,0,1,2.32-.68,6.41,6.41,0,0,1,2,.38Z"/><path class="cls-2" d="M17,46.58a8.12,8.12,0,0,0,2,.92,9.17,9.17,0,0,0,2.93.43,5.3,5.3,0,0,0,3.4-1,3.84,3.84,0,0,0,1.3-3.22,4.39,4.39,0,0,0-.74-2.54,9.74,9.74,0,0,0-1.87-2c-.75-.61-1.55-1.2-2.4-1.79a18.77,18.77,0,0,1-2.41-1.94A9.72,9.72,0,0,1,17.3,33a7,7,0,0,1-.74-3.33A5.6,5.6,0,0,1,18.44,25a7.59,7.59,0,0,1,4.91-1.51,14.49,14.49,0,0,1,3.32.34,8.69,8.69,0,0,1,2.35.85l-.9,2.46a7.32,7.32,0,0,0-1.92-.74,11.35,11.35,0,0,0-2.89-.34,4,4,0,0,0-3,1,3.43,3.43,0,0,0-1,2.48,3.81,3.81,0,0,0,.75,2.32A10.45,10.45,0,0,0,22,33.75c.74.6,1.55,1.2,2.4,1.81a19.47,19.47,0,0,1,2.41,2,10.39,10.39,0,0,1,1.86,2.54,7.09,7.09,0,0,1,.75,3.36,6.83,6.83,0,0,1-1.94,5.15A7.59,7.59,0,0,1,22,50.5a13.84,13.84,0,0,1-3.68-.41A9.17,9.17,0,0,1,16,49.16Z"/><path class="cls-2" d="M31.07,31.4h2.28V27.7L36,26.85V31.4h4v2.42H36V44.94a5.28,5.28,0,0,0,.39,2.37,1.35,1.35,0,0,0,1.29.73A4.43,4.43,0,0,0,39,47.87a11.49,11.49,0,0,0,1.17-.43l.53,2.13a8.76,8.76,0,0,1-3.88.89,3,3,0,0,1-2.67-1.21,7.3,7.3,0,0,1-.8-3.94V33.82H31.07Z"/><path class="cls-2" d="M43,32.52a8.92,8.92,0,0,1,2.63-1.05,14.34,14.34,0,0,1,3.26-.37,5.75,5.75,0,0,1,2.52.47,3.74,3.74,0,0,1,1.5,1.27,4.47,4.47,0,0,1,.7,1.82,13.57,13.57,0,0,1,.17,2.15c0,1.49,0,2.95-.09,4.36s-.1,2.77-.1,4c0,.94,0,1.82.1,2.62a14.77,14.77,0,0,0,.35,2.3H52l-.65-2.2h-.15a5,5,0,0,1-1.63,1.68,5.21,5.21,0,0,1-2.89.71,4.27,4.27,0,0,1-3.28-1.4,5.54,5.54,0,0,1-1.28-3.87,6,6,0,0,1,.54-2.68,4.54,4.54,0,0,1,1.52-1.76,6.53,6.53,0,0,1,2.33-1,15.44,15.44,0,0,1,3-.28h.74c.24,0,.5,0,.78,0,.07-.77.11-1.45.11-2.05a5.27,5.27,0,0,0-.63-3,2.69,2.69,0,0,0-2.3-.86,9,9,0,0,0-2.25.32,8.1,8.1,0,0,0-2,.8Zm8,9c-.25,0-.49,0-.74-.06l-.73,0a10.05,10.05,0,0,0-1.74.15,5,5,0,0,0-1.51.52,2.91,2.91,0,0,0-1.05,1,3,3,0,0,0-.39,1.61,3.4,3.4,0,0,0,.72,2.31,2.36,2.36,0,0,0,1.87.82,3.52,3.52,0,0,0,2.39-.74A4.06,4.06,0,0,0,51,45.5Z"/><path class="cls-2" d="M58.12,31.4H60l.49,2h.11A4.48,4.48,0,0,1,62,31.68a3.35,3.35,0,0,1,2-.62A6.4,6.4,0,0,1,66,31.4l-.52,2.72a5.44,5.44,0,0,0-1.71-.33,2.72,2.72,0,0,0-1.94.69,3.26,3.26,0,0,0-1,1.84V50.05H58.12Z"/><path class="cls-2" d="M67.37,31.4h2.28V27.7l2.69-.85V31.4h4v2.42h-4V44.94a5.28,5.28,0,0,0,.39,2.37A1.34,1.34,0,0,0,74,48a4.41,4.41,0,0,0,1.28-.17,12.55,12.55,0,0,0,1.18-.43L77,49.57a8.76,8.76,0,0,1-3.88.89,3,3,0,0,1-2.67-1.21,7.39,7.39,0,0,1-.8-3.94V33.82H67.37Z"/></g></svg>